<?xml version="1.0" standalone="no"?>
<!DOCTYPE svg PUBLIC "-//W3C//DTD SVG 20010904//EN"
 "http://www.w3.org/TR/2001/REC-SVG-20010904/DTD/svg10.dtd">
<svg version="1.0" xmlns="http://www.w3.org/2000/svg"
 width="375.000000pt" height="317.000000pt" viewBox="0 0 375.000000 317.000000"
 preserveAspectRatio="xMidYMid meet">

<g transform="translate(0.000000,317.000000) scale(0.100000,-0.100000)"
fill="#000000" stroke="none">
<path d="M707 3160 c-104 -27 -218 -126 -258 -227 -35 -87 -34 -227 2 -303 38
-81 108 -154 187 -192 61 -30 74 -33 162 -33 84 0 102 3 157 29 74 34 163 122
196 193 18 40 22 66 22 158 0 134 -16 176 -100 264 -74 78 -152 113 -255 117
-41 2 -92 -1 -113 -6z"/>
<path d="M2615 2175 c-40 -8 -114 -36 -174 -66 -89 -44 -118 -65 -195 -140
-49 -49 -93 -89 -98 -89 -4 0 -8 43 -8 95 l0 95 -310 0 -310 0 0 -1015 0
-1015 310 0 309 0 3 612 c3 610 3 613 26 676 66 182 192 272 381 272 148 0
249 -54 308 -166 59 -111 57 -89 63 -764 l5 -625 310 0 310 0 0 750 c0 749 0
750 -23 840 -12 50 -41 128 -64 174 -79 164 -253 302 -444 352 -104 27 -302
34 -399 14z"/>
<path d="M420 1055 l0 -1015 390 0 390 0 0 1015 0 1015 -390 0 -390 0 0 -1015z"/>
</g>
</svg>
