<?xml version="1.0" standalone="no"?>
<!DOCTYPE svg PUBLIC "-//W3C//DTD SVG 20010904//EN"
 "http://www.w3.org/TR/2001/REC-SVG-20010904/DTD/svg10.dtd">
<svg version="1.0" xmlns="http://www.w3.org/2000/svg"
 width="296.000000pt" height="290.000000pt" viewBox="0 0 296.000000 290.000000"
 preserveAspectRatio="xMidYMid meet">

<g transform="translate(0.000000,290.000000) scale(0.100000,-0.100000)"
fill="#000000" stroke="none">
<path d="M805 2889 c-74 -4 -164 -17 -209 -28 -241 -63 -454 -277 -516 -517
-30 -115 -39 -321 -39 -879 0 -558 9 -764 39 -879 62 -241 276 -454 516 -516
117 -30 318 -39 869 -39 565 0 775 9 889 39 241 62 454 275 516 516 30 114 39
324 39 889 0 551 -9 752 -39 869 -62 240 -275 454 -516 516 -48 13 -139 24
-234 30 -183 11 -1129 10 -1315 -1z m1320 -259 c192 -16 272 -48 370 -145 144
-144 155 -215 155 -1020 0 -805 -11 -876 -155 -1020 -144 -144 -215 -155
-1020 -155 -805 0 -876 11 -1020 155 -144 144 -155 215 -155 1025 0 799 11
871 155 1015 94 93 180 129 346 144 135 12 1181 13 1324 1z"/>
<path d="M2203 2365 c-43 -19 -73 -69 -73 -124 0 -37 6 -49 39 -82 33 -33 45
-39 82 -39 144 0 187 179 59 245 -36 18 -65 18 -107 0z"/>
<path d="M1365 2240 c-291 -46 -538 -250 -630 -519 -39 -117 -51 -220 -37
-336 24 -194 93 -338 226 -471 123 -123 252 -190 427 -220 389 -67 777 185
881 575 28 105 28 275 -1 386 -42 162 -143 320 -269 421 -71 57 -217 128 -303
148 -86 20 -219 27 -294 16z m218 -265 c129 -27 255 -115 329 -229 109 -168
109 -394 0 -562 -74 -114 -181 -189 -318 -224 -97 -25 -141 -25 -238 0 -100
25 -165 61 -242 132 -214 200 -213 546 3 748 133 125 294 172 466 135z"/>
</g>
</svg>
