<?xml version="1.0" standalone="no"?>
<!DOCTYPE svg PUBLIC "-//W3C//DTD SVG 20010904//EN"
 "http://www.w3.org/TR/2001/REC-SVG-20010904/DTD/svg10.dtd">
<svg version="1.0" xmlns="http://www.w3.org/2000/svg"
 width="751.000000pt" height="752.000000pt" viewBox="0 0 751.000000 752.000000"
 preserveAspectRatio="xMidYMid meet">

<g transform="translate(0.000000,752.000000) scale(0.100000,-0.100000)"
fill="#000000" stroke="none">
<path d="M3595 7513 c-638 -52 -1175 -216 -1651 -504 -558 -337 -969 -744
-1294 -1283 -250 -415 -403 -855 -480 -1376 -31 -211 -39 -618 -15 -830 59
-539 207 -1012 446 -1427 33 -56 59 -108 59 -115 0 -7 -148 -449 -329 -983
-181 -533 -328 -971 -328 -972 1 -1 459 144 1017 321 l1015 323 99 -49 c734
-367 1538 -487 2326 -348 778 137 1466 504 2020 1076 834 863 1182 2059 944
3252 -96 480 -320 994 -603 1382 -589 808 -1425 1326 -2401 1489 -246 41 -620
61 -825 44z m585 -598 c927 -104 1778 -644 2276 -1445 243 -391 397 -849 444
-1319 13 -129 13 -434 0 -566 -75 -779 -429 -1473 -1020 -2004 -449 -403
-1010 -663 -1634 -757 -138 -21 -594 -30 -723 -15 -289 35 -528 88 -748 167
-151 54 -430 186 -563 267 -51 32 -96 57 -100 57 -4 0 -272 -85 -597 -188
l-590 -187 192 565 c106 311 193 568 193 573 0 4 -29 49 -64 100 -245 357
-411 777 -485 1227 -95 582 -4 1228 249 1765 525 1115 1663 1815 2890 1778 85
-2 211 -11 280 -18z"/>
<path d="M2480 5512 c-71 -26 -110 -55 -176 -129 -165 -185 -236 -330 -269
-553 -20 -128 -19 -196 6 -331 46 -255 147 -468 379 -794 501 -704 998 -1118
1620 -1351 417 -156 695 -227 817 -210 88 13 238 45 281 60 126 45 315 167
399 259 89 96 145 268 147 448 1 92 -2 110 -18 128 -19 21 -150 88 -501 253
-319 151 -380 170 -432 133 -12 -8 -57 -61 -101 -118 -122 -158 -249 -300
-285 -320 -43 -24 -75 -17 -211 44 -319 144 -525 281 -738 492 -160 158 -367
428 -425 555 -32 69 -25 98 41 170 115 126 171 200 208 277 31 65 38 87 33
115 -4 19 -44 123 -90 230 -45 107 -111 265 -146 350 -78 193 -122 269 -169
292 -49 25 -303 25 -370 0z"/>
</g>
</svg>
